# xmcd
# Copyright (C) 1995-1998 Ti Kan
#
# Track frame offsets:
#       150
#       14372
#       30119
#       45298
#       60155
#       80479
#       96910
#       109054
#       126846
#       138765
#       158517
#       169078
#       192275
#
# Disc length: 2723 seconds
#
# Revision: 0
# Processed by: cddbd v1.5.2PL0 Copyright (c) Steve Scherf et al.
# Submitted via: CD-Import v1.0
#
DISCID=8f0aa10d
DTITLE=Slartybartfast - Terrifying!
DYEAR=10
DGENRE=
TTITLE0=You
TTITLE1=Miss Confidence
TTITLE2=Get You
TTITLE3=Slow Down
TTITLE4=News Abuse
TTITLE5=Fire
TTITLE6=Blue Eyes
TTITLE7=Ticking Bomb
TTITLE8=Back Right Now
TTITLE9=Master Plan
TTITLE10=Hey Hey Baby
TTITLE11=No Need To Fall In Love
TTITLE12=Bonus Track Slartybartfast
EXTD=
EXTT0=
EXTT1=
EXTT2=
EXTT3=
EXTT4=
EXTT5=
EXTT6=
EXTT7=
EXTT8=
EXTT9=
EXTT10=
EXTT11=
EXTT12=
PLAYORDER=
